<svg xmlns="http://www.w3.org/2000/svg" data-name="Layer 1" viewBox="0 0 68 68"><path d="M24.77 25H10a1 1 0 0 1-.92-1.38A26.94 26.94 0 0 1 34 7a1 1 0 0 1 0 2c-3.42 0-6.81 6.23-8.25 15.16a1 1 0 0 1-.98.84zm-13.23-2h12.38c1.09-6.19 3-10.9 5.38-13.56A24.93 24.93 0 0 0 11.54 23zM34 61A26.94 26.94 0 0 1 9.07 44.38 1 1 0 0 1 10 43h14.77a1 1 0 0 1 1 .84C27.19 52.77 30.58 59 34 59a1 1 0 0 1 0 2zM11.54 45A24.93 24.93 0 0 0 29.3 58.56C26.92 55.9 25 51.19 23.92 45z"/><path d="M58 25H43.23a1 1 0 0 1-1-.84C40.81 15.23 37.42 9 34 9a1 1 0 0 1 0-2 26.94 26.94 0 0 1 24.93 16.62A1 1 0 0 1 58 25zm-13.92-2h12.38A24.93 24.93 0 0 0 38.7 9.44C41.08 12.1 43 16.81 44.08 23zM34 61a1 1 0 0 1 0-2c3.42 0 6.81-6.23 8.25-15.16a1 1 0 0 1 1-.84H58a1 1 0 0 1 .92 1.38A26.94 26.94 0 0 1 34 61zm10.08-16c-1.09 6.19-3 10.9-5.38 13.56A24.93 24.93 0 0 0 56.46 45z"/><path d="M60 35H44a1 1 0 0 1-1-1 62.34 62.34 0 0 0-.75-9.84 1 1 0 0 1 1-1.16H58a1 1 0 0 1 .92.62A26.91 26.91 0 0 1 61 34a1 1 0 0 1-1 1zm-15-1zm0-1h14a24.87 24.87 0 0 0-1.65-8H44.39a64.54 64.54 0 0 1 .61 8zm-21 2H8a1 1 0 0 1-1-1 26.91 26.91 0 0 1 2.07-10.38A1 1 0 0 1 10 23h14.77a1 1 0 0 1 1 1.16A62.34 62.34 0 0 0 25 34a1 1 0 0 1-1 1zM9 33h14a64.54 64.54 0 0 1 .6-8H10.67A24.87 24.87 0 0 0 9 33z"/><path d="M58 45H43.23a1 1 0 0 1-1-1.16A62.34 62.34 0 0 0 43 34a1 1 0 0 1 1-1h16a1 1 0 0 1 1 1 26.91 26.91 0 0 1-2.07 10.38A1 1 0 0 1 58 45zm-13.61-2h12.94A24.87 24.87 0 0 0 59 35H45a64.54 64.54 0 0 1-.61 8zm-19.62 2H10a1 1 0 0 1-.92-.62A26.91 26.91 0 0 1 7 34a1 1 0 0 1 1-1h16a1 1 0 0 1 1 1 62.34 62.34 0 0 0 .75 9.84 1 1 0 0 1-1 1.16zm-14.1-2h12.94a64.54 64.54 0 0 1-.6-8H9a24.87 24.87 0 0 0 1.67 8zM34 25a1 1 0 0 1-1-1V8a1 1 0 0 1 2 0v16a1 1 0 0 1-1 1z"/><path d="M34 61a1 1 0 0 1-1-1V44a1 1 0 0 1 1-1h9.23a1 1 0 1 1 0 2H35v15a1 1 0 0 1-1 1z"/><path d="M34 61a1 1 0 0 1-1-1V45h-8.23a1 1 0 0 1 0-2H34a1 1 0 0 1 1 1v16a1 1 0 0 1-1 1zm0-26H24a1 1 0 0 1 0-2h9v-8h-8.23a1 1 0 0 1 0-2H34a1 1 0 0 1 1 1v10a1 1 0 0 1-1 1z"/><path d="M44 35H34a1 1 0 0 1-1-1V24a1 1 0 0 1 1-1h9.23a1 1 0 1 1 0 2H35v8h9a1 1 0 0 1 0 2z"/><path d="M34 45a1 1 0 0 1-1-1V34a1 1 0 0 1 2 0v10a1 1 0 0 1-1 1z"/></svg>